<?xml version="1.0" encoding="utf-8"?>
<!-- Generator: Adobe Illustrator 26.0.2, SVG Export Plug-In . SVG Version: 6.00 Build 0)  -->
<svg version="1.1" id="Calque_1" xmlns="http://www.w3.org/2000/svg" xmlns:xlink="http://www.w3.org/1999/xlink" x="0px" y="0px"
	 viewBox="0 0 826.12 301.18" style="enable-background:new 0 0 826.12 301.18;" xml:space="preserve">
<style type="text/css">
	.st0{fill:#FFFFFF;}
	.st1{fill:#CF3339;}
	.st2{fill:#192A67;}
	.st3{fill:#310046;}
	.st4{fill:#FFD200;}
</style>
<g>
	<g>
		<g>
			<rect x="553.11" y="218.45" class="st0" width="23.46" height="10.75"/>
			<path class="st1" d="M596.1,229.2h-19.54v-10.75h19.54c2.17,0,3.93,1.76,3.93,3.93v2.89C600.03,227.44,598.28,229.2,596.1,229.2"
				/>
			<path class="st2" d="M533.58,218.45h19.53v10.75h-19.53c-2.17,0-3.93-1.76-3.93-3.93v-2.89
				C529.65,220.21,531.4,218.45,533.58,218.45"/>
		</g>
		<g>
			<path class="st3" d="M561.66,149.68c0.01-0.01,0.02-0.01,0.02-0.01L561.66,149.68L561.66,149.68z"/>
			<path class="st3" d="M357.38,145.42v-19.31c0-16.53-12.2-22.39-22.65-22.39c-7.48,0-13.18,3.14-17.42,9.58V75.74h-20.08v2.2
				l2.93,0.14c4.64,0.25,5.61,0.31,5.61,17.15v50.19c0,16.85-0.97,16.9-5.61,17.15l-2.93,0.15v2.2h28.62v-2.2l-2.93-0.15
				c-4.65-0.25-5.61-0.3-5.61-17.15v-28.29c2.52-4.58,7.21-10.01,15.31-10.01c8.53,0,13.21,6.74,13.21,18.99v19.31
				c0,16.85-0.96,16.9-5.61,17.15l-2.94,0.15v2.2h28.62v-2.2l-2.93-0.15C358.34,162.32,357.38,162.27,357.38,145.42"/>
			<path class="st3" d="M399.62,103.72c-13.62,0-28.17,8.29-28.17,31.58c0,8.25,2.72,15.93,7.65,21.62
				c5.49,6.34,13.28,9.7,22.49,9.7c13.52,0,22.03-6.04,24.62-17.46l0.07-0.31l-2.46-0.53l-0.07,0.3c-2.29,9.7-8.86,14.6-19.53,14.6
				c-13.13,0-19.51-9.48-19.51-28.97v-2.31h41.65v-0.32C426.35,113.63,416.86,103.72,399.62,103.72 M413.36,129.73h-28.65
				c0.14-12.33,2.11-23.67,14.92-23.67C411.81,106.06,413.33,119.47,413.36,129.73"/>
			<path class="st3" d="M478.58,149.58l-11.17-16.9l7.35-10.46c7.4-10.25,11.77-14.06,16.73-14.59l1.47-0.16v-2.18h-21v2.19
				l2.14,0.15c1.23,0.07,2.07,0.56,2.5,1.46c1.14,2.38-0.6,7.39-4.45,12.75l-6.17,8.81l-7.1-10.78c-4.02-6.02-5.38-9.28-4.57-10.9
				c0.42-0.82,1.49-1.26,3.27-1.35l2.67-0.15v-2.2h-28.49v2.17l1.2,0.17c4.78,0.65,7.39,3.08,13.96,13l10.79,16.24l-7.89,10.99
				c-7.67,10.63-11.71,14.21-16.59,14.71l-1.46,0.16v2.18h21v-2.19l-2-0.15c-1.38-0.1-2.32-0.67-2.78-1.67
				c-1.14-2.47,0.57-7.33,4.46-12.67l6.7-9.21l7.49,11.31c3.57,5.35,5.04,9.29,4.15,11.08c-0.34,0.7-1.09,1.1-2.19,1.17l-2.67,0.15
				v2.2h28.49v-2.18l-1.46-0.16C488.23,162.04,484.74,158.88,478.58,149.58"/>
			<path class="st3" d="M549.45,145.42v-20.76c0-14.46-12.96-20.94-25.8-20.94c-12.37,0-20.69,4.93-20.69,12.28
				c0,4.05,3,6.89,7.28,6.89c3.87,0,6.89-3.03,6.89-6.89c0-2.38-0.92-3.9-1.66-5.12c-0.47-0.77-0.84-1.38-0.84-1.98
				c0-1.86,3.16-2.83,9.14-2.83c9.24,0,14.13,4.75,14.13,13.73v15.81c-5.12-2.17-9.36-2.99-15.45-2.99
				c-16.17,0-24.36,5.59-24.36,16.61c0,10.41,8.58,17.14,21.86,17.14c7.94,0,13.9-3.18,18.21-9.72v8.27h19.82v-2.2l-2.94-0.14
				C550.41,162.32,549.45,162.27,549.45,145.42 M537.91,138.01v15.08c-2.88,5.81-8.79,9.87-14.4,9.87c-8.33,0-12.56-4.4-12.56-13.08
				c0-9.9,4.54-14.92,13.47-14.92C529.81,134.97,533.72,136.18,537.91,138.01"/>
			<path class="st3" d="M575.22,112.33c-6.8,5.32-10.38,13.41-10.38,23.37c0,18.14,13.36,30.79,32.5,30.79
				c3.75,0,7.49-0.49,11.11-1.47v0.63c0,16.43-2.61,24.25-17.42,24.25c-8.29,0-11.38-2.46-11.38-4.01c0-1.1,0.44-1.88,0.96-2.78
				c0.66-1.15,1.4-2.46,1.4-4.71c0-4.01-2.96-7.03-6.89-7.03c-4.28,0-7.15,2.87-7.15,7.15c0,6.6,8.81,13.72,23.05,13.72
				c19.22,0,28.96-8.95,28.96-26.6v-40.86c0-16.85,0.96-16.9,5.6-17.15l2.94-0.15v-2.2H598C589.1,105.3,581,107.79,575.22,112.33
				 M597.86,107.64h10.59v54.87c-4.41,1.19-7.44,1.64-11.11,1.64c-12.69,0-19.12-9.57-19.12-28.45
				C578.22,122.76,583.36,107.64,597.86,107.64"/>
			<path class="st3" d="M663.16,103.72c-19.71,0-30.01,15.76-30.01,31.32c0,8.37,2.8,16.17,7.88,21.96
				c5.53,6.3,13.19,9.63,22.13,9.63c19.78,0,30.14-15.83,30.14-31.45C693.3,119.55,682.94,103.72,663.16,103.72 M663.16,164.28
				c-11.35,0-16.63-9.25-16.63-29.1c0-20.13,5.13-29.11,16.63-29.11c11.34,0,16.63,9.29,16.63,29.24
				C679.78,155.34,674.66,164.28,663.16,164.28"/>
			<path class="st3" d="M759.64,145.42v-19.31c0-7.17-2.49-13.02-7.17-16.93c-4.2-3.49-9.91-5.33-16.53-5.33
				c-10.22,0-15.35,5.32-18.34,9.75v-8.31h-19.82v2.2l2.93,0.15c4.64,0.25,5.61,0.3,5.61,17.15v20.63c0,16.85-0.97,16.9-5.61,17.15
				l-2.93,0.15v2.2h28.62v-2.2l-2.93-0.15c-4.64-0.25-5.61-0.3-5.61-17.15v-28.29c3.67-6.55,9.04-9.88,15.97-9.88
				c9.2,0,14.26,6.7,14.26,18.86v19.31c0,16.85-0.96,16.9-5.61,17.15l-2.93,0.15v2.2h28.62v-2.2l-2.92-0.15
				C760.61,162.32,759.64,162.27,759.64,145.42"/>
			<path class="st3" d="M826.12,131.95v-0.32c0-17.99-9.49-27.9-26.73-27.9c-13.62,0-28.17,8.29-28.17,31.58
				c0,8.25,2.72,15.93,7.65,21.62c5.49,6.34,13.27,9.7,22.49,9.7c13.52,0,22.03-6.04,24.62-17.46l0.07-0.31l-2.46-0.53l-0.07,0.3
				c-2.29,9.7-8.86,14.6-19.53,14.6c-13.13,0-19.51-9.48-19.51-28.97v-2.31H826.12z M813.13,129.73h-28.65
				c0.14-12.33,2.11-23.67,14.92-23.67C811.58,106.06,813.1,119.47,813.13,129.73"/>
		</g>
	</g>
	<g>
		<g>
			<path class="st4" d="M265.1,126.73V83.28c0-5.7-3.04-10.97-7.98-13.83L140.53,2.14c-4.94-2.85-11.03-2.85-15.96,0L98.34,17.28
				v200.08c0,5.44,1.76,9.88,5.28,13.32c3.52,3.47,8.03,5.19,13.55,5.19H79.51H66H28.33c5.53,0,10.04-1.72,13.55-5.19
				c3.52-3.44,5.28-7.88,5.28-13.32V46.83L7.98,69.45C3.04,72.3,0,77.57,0,83.28V217.9c0,5.7,3.04,10.97,7.98,13.83l116.59,67.31
				c4.94,2.85,11.03,2.85,15.96,0l116.59-67.31c4.94-2.85,7.98-8.12,7.98-13.83v-25.16c-19.84,21.85-47.91,38.59-81.66,42.63
				c-1.6,0.23-2.59,0.26-2.85,0.26c-26.27,1.84-48.67-12.57-48.67-57.13v-64.25c0-7.29-1.12-12.71-3.38-16.25
				c-2.25-3.54-5.1-5.8-8.53-6.76c-3.44-0.96-5.98-1.72-10.25-0.72c-3.9,0.92-5.49,2.02-8.71,3.95c8.3-5.9,15.68-10.36,25.58-12.73
				c9.89-2.36,19.04-2.68,27.42-0.96c8.39,1.72,15.32,5.8,20.81,12.23c5.48,6.43,8.23,15.88,8.23,28.32v58.43
				c0,26.99,21.93,41.41,44.23,37.86C247.17,203.54,263.42,169.68,265.1,126.73z"/>
		</g>
		<path class="st3" d="M180.59,235.64c-0.05,0-0.08,0-0.08,0c0.31-0.03,0.61-0.05,0.91-0.08c0.71-0.08,1.41-0.16,2.12-0.25
			c0.81-0.12,1.79-0.26,2.92-0.44c8.19-1.52,23.76-5.66,39.94-16.59c0.31-0.21,0.61-0.43,0.92-0.65
			c-22.3,3.55-44.23-10.87-44.23-37.86v-58.43c0-12.44-2.75-21.89-8.23-28.32c-5.48-6.44-12.42-10.52-20.81-12.23
			c-8.39-1.72-17.53-1.39-27.42,0.96c-9.9,2.36-17.28,6.82-25.58,12.73c3.22-1.93,4.81-3.03,8.71-3.95c4.28-1,6.81-0.25,10.25,0.72
			c3.43,0.96,6.27,3.22,8.53,6.76c2.26,3.54,3.38,8.96,3.38,16.25v64.25C131.92,223.07,154.33,237.48,180.59,235.64z"/>
	</g>
</g>
</svg>
